<mxfile host="app.diagrams.net" modified="2024-04-27T01:31:41.146Z" agent="Mozilla/5.0 (Windows NT 10.0; Win64; x64; rv:125.0) Gecko/20100101 Firefox/125.0" etag="Bwdeu8nZ8d-wFZWN6tPv" version="24.3.1" type="device">
  <diagram name="Page-1" id="8RXnWZLVULPvOtZDjxxd">
    <mxGraphModel dx="1566" dy="909" grid="1" gridSize="10" guides="1" tooltips="1" connect="1" arrows="1" fold="1" page="1" pageScale="1" pageWidth="850" pageHeight="1100" math="0" shadow="0">
      <root>
        <mxCell id="0" />
        <mxCell id="1" parent="0" />
        <mxCell id="pJyI0FKWQgOQzAi8I-mG-2" value="" style="rounded=1;whiteSpace=wrap;html=1;" vertex="1" parent="1">
          <mxGeometry x="355" y="80" width="100" height="170" as="geometry" />
        </mxCell>
        <mxCell id="pJyI0FKWQgOQzAi8I-mG-3" value="" style="html=1;strokeWidth=1;shadow=0;dashed=0;shape=mxgraph.ios7.misc.bluetooth;fillColor=#007AFF;strokeColor=none;buttonText=;strokeColor2=#222222;fontColor=#222222;fontSize=8;verticalLabelPosition=bottom;verticalAlign=top;align=center;sketch=0;" vertex="1" parent="1">
          <mxGeometry x="385" y="190" width="40" height="40" as="geometry" />
        </mxCell>
        <mxCell id="pJyI0FKWQgOQzAi8I-mG-4" value="&lt;div&gt;Bridge Device&lt;/div&gt;" style="text;html=1;align=center;verticalAlign=middle;whiteSpace=wrap;rounded=0;" vertex="1" parent="1">
          <mxGeometry x="350" y="80" width="110" height="30" as="geometry" />
        </mxCell>
        <mxCell id="pJyI0FKWQgOQzAi8I-mG-5" value="MCU" style="rounded=0;whiteSpace=wrap;html=1;" vertex="1" parent="1">
          <mxGeometry x="380" y="130" width="50" height="50" as="geometry" />
        </mxCell>
        <mxCell id="pJyI0FKWQgOQzAi8I-mG-6" value="" style="rounded=1;whiteSpace=wrap;html=1;" vertex="1" parent="1">
          <mxGeometry x="625" y="80" width="100" height="170" as="geometry" />
        </mxCell>
        <mxCell id="pJyI0FKWQgOQzAi8I-mG-8" value="&lt;div&gt;Target Device&lt;/div&gt;" style="text;html=1;align=center;verticalAlign=middle;whiteSpace=wrap;rounded=0;" vertex="1" parent="1">
          <mxGeometry x="620" y="80" width="110" height="30" as="geometry" />
        </mxCell>
        <mxCell id="pJyI0FKWQgOQzAi8I-mG-9" value="MCU" style="rounded=0;whiteSpace=wrap;html=1;" vertex="1" parent="1">
          <mxGeometry x="650" y="130" width="50" height="50" as="geometry" />
        </mxCell>
        <mxCell id="pJyI0FKWQgOQzAi8I-mG-15" value="" style="rounded=1;whiteSpace=wrap;html=1;" vertex="1" parent="1">
          <mxGeometry x="75" y="80" width="100" height="170" as="geometry" />
        </mxCell>
        <mxCell id="pJyI0FKWQgOQzAi8I-mG-16" value="" style="html=1;strokeWidth=1;shadow=0;dashed=0;shape=mxgraph.ios7.misc.bluetooth;fillColor=#007AFF;strokeColor=none;buttonText=;strokeColor2=#222222;fontColor=#222222;fontSize=8;verticalLabelPosition=bottom;verticalAlign=top;align=center;sketch=0;" vertex="1" parent="1">
          <mxGeometry x="105" y="190" width="40" height="40" as="geometry" />
        </mxCell>
        <mxCell id="pJyI0FKWQgOQzAi8I-mG-17" value="Mobile Device" style="text;html=1;align=center;verticalAlign=middle;whiteSpace=wrap;rounded=0;" vertex="1" parent="1">
          <mxGeometry x="70" y="80" width="110" height="30" as="geometry" />
        </mxCell>
        <mxCell id="pJyI0FKWQgOQzAi8I-mG-19" value="" style="endArrow=classic;startArrow=classic;html=1;rounded=0;exitX=1;exitY=0.5;exitDx=0;exitDy=0;entryX=0;entryY=0.5;entryDx=0;entryDy=0;" edge="1" parent="1" source="pJyI0FKWQgOQzAi8I-mG-15" target="pJyI0FKWQgOQzAi8I-mG-2">
          <mxGeometry width="50" height="50" relative="1" as="geometry">
            <mxPoint x="400" y="350" as="sourcePoint" />
            <mxPoint x="450" y="300" as="targetPoint" />
          </mxGeometry>
        </mxCell>
        <mxCell id="pJyI0FKWQgOQzAi8I-mG-20" value="" style="endArrow=none;html=1;rounded=0;entryX=1.06;entryY=0.594;entryDx=0;entryDy=0;entryPerimeter=0;" edge="1" parent="1" target="pJyI0FKWQgOQzAi8I-mG-2">
          <mxGeometry width="50" height="50" relative="1" as="geometry">
            <mxPoint x="620" y="150" as="sourcePoint" />
            <mxPoint x="450" y="300" as="targetPoint" />
            <Array as="points">
              <mxPoint x="560" y="150" />
              <mxPoint x="530" y="180" />
            </Array>
          </mxGeometry>
        </mxCell>
        <mxCell id="pJyI0FKWQgOQzAi8I-mG-21" value="" style="endArrow=none;html=1;rounded=0;" edge="1" parent="1">
          <mxGeometry width="50" height="50" relative="1" as="geometry">
            <mxPoint x="620" y="180" as="sourcePoint" />
            <mxPoint x="460" y="150" as="targetPoint" />
            <Array as="points">
              <mxPoint x="560" y="180" />
              <mxPoint x="530" y="150" />
            </Array>
          </mxGeometry>
        </mxCell>
        <mxCell id="pJyI0FKWQgOQzAi8I-mG-22" value="&lt;div&gt;BLE UART&lt;/div&gt;&lt;div&gt;Terminal&lt;/div&gt;&lt;div&gt;App&lt;br&gt;&lt;/div&gt;" style="rounded=0;whiteSpace=wrap;html=1;" vertex="1" parent="1">
          <mxGeometry x="90" y="120" width="70" height="60" as="geometry" />
        </mxCell>
        <mxCell id="pJyI0FKWQgOQzAi8I-mG-23" value="Bluetooth LE" style="text;html=1;align=center;verticalAlign=middle;whiteSpace=wrap;rounded=0;" vertex="1" parent="1">
          <mxGeometry x="230" y="110" width="60" height="30" as="geometry" />
        </mxCell>
        <mxCell id="pJyI0FKWQgOQzAi8I-mG-24" value="&lt;div&gt;UART&lt;/div&gt;115200 / 9600" style="text;html=1;align=center;verticalAlign=middle;whiteSpace=wrap;rounded=0;" vertex="1" parent="1">
          <mxGeometry x="500" y="110" width="90" height="30" as="geometry" />
        </mxCell>
      </root>
    </mxGraphModel>
  </diagram>
</mxfile>
